<svg width="50" height="50" viewBox="0 0 50 50" fill="none" xmlns="http://www.w3.org/2000/svg">
<path d="M38.4674 30.3643C39.4846 29.3471 41.0859 29.3471 42.1031 30.3643C43.0859 31.3814 43.0859 32.9828 42.1031 34L26.8683 49.2371C26.3963 49.7091 25.7411 50 25.0149 50C24.2887 50 23.6335 49.7091 23.1592 49.2371L7.92442 34C6.90723 32.9828 6.90723 31.3814 7.92442 30.3643C8.9416 29.3471 10.543 29.3471 11.5602 30.3643L22.433 41.2738V2.54525C22.4307 1.12715 23.5945 0 25.0126 0C26.4307 0 27.5579 1.12715 27.5579 2.54525V41.2715L38.4674 30.3643Z" fill="white"/>
</svg>
